<svg height="451" width="451" fill="#000000" xmlns="http://www.w3.org/2000/svg" xmlns:xlink="http://www.w3.org/1999/xlink" version="1.1" x="0px" y="0px" viewBox="0 0 48 48" enable-background="new 0 0 48 48" xml:space="preserve"><g><g><path d="M23.7,47.5c-0.5,0-0.9-0.2-1.3-0.5C20.1,45,0,26.7,0.5,16c0.4-8.8,6-15.5,13.1-15.5c0,0,0.1,0,0.1,0c4.2,0,8,2.5,10.4,6.4    c2.4-3.8,6.2-6.2,10.4-6.2c0,0,0.1,0,0.1,0c3.1,0,6.1,1.4,8.5,3.8c2.9,3,4.6,7.4,4.4,12.1c-0.3,13.1-21.7,29.8-22.6,30.5    C24.6,47.4,24.2,47.5,23.7,47.5z M13.7,4.4c-4.9,0-8.9,5.2-9.2,11.8C4.1,23.2,17.3,37,23.8,43c6.4-5.3,19.5-17.8,19.8-26.5    c0.1-3.6-1.1-6.9-3.3-9.2c-1.6-1.7-3.6-2.6-5.7-2.6c-3.8,0-7.3,3.1-8.6,7.7c-0.2,0.8-1,1.4-1.9,1.4c0,0,0,0,0,0    c-0.9,0-1.6-0.6-1.9-1.4C20.9,7.6,17.5,4.5,13.7,4.4z"/></g><g><path d="M23.5,33.6c-0.1,0-0.1,0-0.2,0c-0.8-0.1-1.4-0.6-1.7-1.4L18,20.4l-3.1,4.7c-0.4,0.5-1,0.9-1.6,0.9H5.4c-1.1,0-2-0.9-2-2    c0-1.1,0.9-2,2-2h6.8l4.8-7.3c0.4-0.6,1.2-1,1.9-0.9c0.7,0.1,1.4,0.6,1.6,1.4L24,26.7L32,12.5c0.4-0.7,1.2-1.1,2-1    c0.8,0.1,1.4,0.7,1.6,1.5l2.3,9.1h5.4c1.1,0,2,0.9,2,2c0,1.1-0.9,2-2,2h-6.9c-0.9,0-1.7-0.6-1.9-1.5L33,18.7l-7.8,13.9    C24.9,33.2,24.2,33.6,23.5,33.6z"/></g></g></svg>
